# xmcd CD database file
#
# Track frame offsets:
#	150
#	14805
#	27722
#	40733
#	60501
#	76417
#	89992
#	104727
#	124923
#	141309
#	156191
#	168765
#	181381
#	200366
#	212899
#	226337
#	241164
#	251267
#	264079
#	276918
#	289516
#
# Disc length: 4158 seconds
#
# Revision: 0
# Processed by: cddbd v1.5.2PL0 Copyright (c) Steve Scherf et al.
# Submitted via: CDex 1.51
#
DISCID=32103c15
DTITLE=Various Artist - Veïmì dál, cesto má
DYEAR=1900
DGENRE=Country
TTITLE0=Take Me Home, Country Roads
TTITLE1=Swinging Doors
TTITLE2=Life's Railway To Heaven
TTITLE3=Coward Of The Country
TTITLE4=Lookin' For Love
TTITLE5=Big Bad John
TTITLE6=Nine Pound Hammer
TTITLE7=One Day At A Time
TTITLE8=Hungry Eyes
TTITLE9=Tom Dooley
TTITLE10='57 Cevrolet
TTITLE11=Silver Wings
TTITLE12=Rocky Mountain High
TTITLE13=By The Time I Get To Phoenix
TTITLE14=True Love Ways
TTITLE15=Don't Give Up On Me
TTITLE16=The Wreck Of The Old 97
TTITLE17=Sound Of Goodbye
TTITLE18=Jambalaya
TTITLE19=San Antonio Rose
TTITLE20=The Last Cowboy Song
EXTD=
EXTT0=
EXTT1=
EXTT2=
EXTT3=
EXTT4=
EXTT5=
EXTT6=
EXTT7=
EXTT8=
EXTT9=
EXTT10=
EXTT11=
EXTT12=
EXTT13=
EXTT14=
EXTT15=
EXTT16=
EXTT17=
EXTT18=
EXTT19=
EXTT20=
PLAYORDER=
